<svg xmlns="http://www.w3.org/2000/svg" viewBox="0 0 144 51.74"><defs><style>.a{opacity:0;}.b{fill:#3d97d2;}.c{fill:#26a9e0;}.d{fill:#fff;}</style></defs><title>logo</title><g class="a"><path class="b" d="M73.7,51.54c3.17-4,16.43-21,16.43-29.35,0-11.32-7.59-20.49-16.94-20.49S56.25,10.87,56.25,22.19c0,7.92,12.55,24.72,15.93,29.11C72.82,52.19,73.4,51.85,73.7,51.54Z" transform="translate(-1 -0.13)"/></g><path class="c" d="M73.7,51.54c3.17-4,16.43-21,16.43-29.35,0-11.32-7.59-20.49-16.94-20.49S56.25,10.87,56.25,22.19c0,7.92,12.55,24.72,15.93,29.11C72.82,52.19,73.4,51.85,73.7,51.54Z" transform="translate(-1 -0.13)"/><path class="b" d="M73.7,51.54c3.17-4,16.43-21,16.43-29.35,0-11.32-7.59-20.49-16.94-20.49S56.25,10.87,56.25,22.19c0,7.92,12.55,24.72,15.93,29.11C72.82,52.19,73.4,51.85,73.7,51.54Z" transform="translate(-1 -0.13)"/><path class="d" d="M51.81,13.95a12.33,12.33,0,0,0-7.19-2.32,11,11,0,0,0-6.91,2.15V0.41l-0.51,0s-0.24,0-.62,0c-1.53,0-6.52.38-6.52,5.34V24.74c0,7.47,5.85,13.11,13.62,13.11a13.73,13.73,0,0,0,10.47-4.54l0,0q0.24-.28.47-0.58h0A18.61,18.61,0,0,0,56.22,30a13.4,13.4,0,0,0-2.87-14.78C53.14,15.07,52.14,14.2,51.81,13.95ZM43.68,31a6.1,6.1,0,0,1-6-6.21,6.18,6.18,0,0,1,6-6.36,6.1,6.1,0,0,1,6,6.36A6,6,0,0,1,43.68,31Z" transform="translate(-1 -0.13)"/><path class="d" d="M113.73,0.13A4.4,4.4,0,0,0,109,4.86V14a11,11,0,0,0-6.91-2.14,12.3,12.3,0,0,0-7.34,2.43c-0.2.17-1.2,1-1.52,1.32a13.39,13.39,0,0,0-2.6,15c0.28,0.51,1.06,1.84,1.15,2A13.56,13.56,0,0,0,103,38.07c7.76,0,13.62-5.64,13.62-13.12V0.13h-2.89ZM103,31.21A6,6,0,0,1,97,25a6.1,6.1,0,0,1,6-6.35A6.18,6.18,0,0,1,109,25,6.1,6.1,0,0,1,103,31.21Z" transform="translate(-1 -0.13)"/><path class="d" d="M17.31,15.81V26.75a4.09,4.09,0,0,1-4.41,4c-3.85,0-4.27-2.81-4.27-4V12H4.83A3.6,3.6,0,0,0,1,15.81V26.56c0,6.86,4.67,11.29,11.89,11.29s12-4.64,12-11.29V12H21A3.66,3.66,0,0,0,17.31,15.81Z" transform="translate(-1 -0.13)"/><path class="d" d="M141.07,12a3.66,3.66,0,0,0-3.7,3.77V26.75c0,2.33-1.86,4-4.41,4-3.85,0-4.26-2.81-4.26-4V12h-3.79a3.6,3.6,0,0,0-3.83,3.77V26.56c0,6.86,4.67,11.29,11.89,11.29s12-4.64,12-11.29V12h-3.93Z" transform="translate(-1 -0.13)"/><path class="d" d="M77.53,15.81V26.75c0,2.33-1.86,4-4.41,4-3.85,0-4.26-2.81-4.26-4V12H65.06a3.6,3.6,0,0,0-3.84,3.77V26.56c0,6.86,4.67,11.29,11.89,11.29s12-4.64,12-11.29V12H81.23A3.66,3.66,0,0,0,77.53,15.81Z" transform="translate(-1 -0.13)"/></svg>